<svg width="31" height="32" viewBox="0 0 31 32" fill="none" xmlns="http://www.w3.org/2000/svg">
<g clip-path="url(#clip0_6_70)" filter="url(#filter0_d_6_70)">
<path fill-rule="evenodd" clip-rule="evenodd" d="M9.79554 15.9244C9.78932 15.6983 9.79932 15.4969 9.7931 15.2708L9.70565 13.8058C9.67537 13.4336 9.69305 12.8818 9.62437 12.3802L9.52058 10.4292H16.2785C18.0791 10.4292 19.7301 10.4749 21.5296 10.4749L21.2113 15.6817C21.2055 15.9082 21.1689 15.9091 21.163 16.1356C21.1429 16.9097 21.0338 17.8656 21.0289 18.5586C21.0272 18.7955 20.992 18.8094 20.9815 19.0135L20.8014 21.8928C20.7481 22.5429 20.8121 23.2028 20.5846 23.6851C20.3992 24.0779 19.8999 24.4931 19.3379 24.4931H11.6667C11.0858 24.4931 10.6467 24.0871 10.4342 23.7164C10.2138 23.3318 10.2232 22.5259 10.2069 21.9346C10.2007 21.7085 9.91929 18.2317 9.91308 18.0056C9.72083 17.4096 9.14576 16.0868 8.42349 17.2341L8.58096 19.4967C8.61334 19.7112 8.59587 19.8446 8.60717 20.0641L8.74187 21.7559C8.80584 22.5546 8.77042 23.2858 8.97188 23.9459C9.28897 24.9848 10.3999 26 11.758 26H19.3379C20.7009 26 21.9268 24.9151 22.1899 23.4639C22.2244 23.274 22.2051 23.1085 22.2339 22.9143L22.3847 20.645C22.4315 20.303 22.4324 19.8184 22.4415 19.4689C22.4582 18.8282 22.6274 17.3346 22.6245 16.684L22.7293 14.9622C22.8285 14.2371 22.9507 10.7973 23.0365 10.4292C24.0037 10.4292 24.9999 10.6502 24.9999 9.56164C24.9999 9.22531 24.6263 8.92237 24.2693 8.92237H19.1552C19.1552 8.03078 19.2779 7.21229 18.5862 6.569C18.3022 6.30494 17.8038 6 17.2831 6H13.7215C13.4623 6 13.1624 6.096 12.9895 6.18132C12.3838 6.48027 11.8493 7.06927 11.8493 7.82648V8.92237H6.7352C5.84627 8.92237 5.70988 10.2113 6.62215 10.4053C6.99399 10.4843 7.56361 10.4292 7.96808 10.4292C8.03477 10.7155 8.17284 13.3383 8.1963 13.8083C8.29654 15.4891 9.81596 16.5026 9.79554 15.9244ZM13.3105 8.05478C13.3105 7.76983 13.4412 7.55251 13.7215 7.55251H17.2831C17.8238 7.55251 17.694 8.3135 17.694 8.92237H13.3105V8.05478Z" fill="#A80000"/>
<path fill-rule="evenodd" clip-rule="evenodd" d="M17.6806 13.5446V21.4442C17.6806 21.8648 18.3155 22.4064 18.8972 21.9301C19.0018 21.8445 19.1418 21.6118 19.1418 21.4442V13.5446C19.1418 12.6067 17.6806 12.5876 17.6806 13.5446Z" fill="#A80000"/>
<path fill-rule="evenodd" clip-rule="evenodd" d="M11.8359 13.5446V21.4442C11.8359 21.8648 12.4708 22.4064 13.0525 21.9301C13.1571 21.8445 13.2971 21.6118 13.2971 21.4442V13.5446C13.2971 12.6067 11.8359 12.5876 11.8359 13.5446Z" fill="#A80000"/>
<path fill-rule="evenodd" clip-rule="evenodd" d="M14.7582 13.5446V21.4442C14.7582 21.8648 15.3931 22.4064 15.9748 21.9301C16.0794 21.8445 16.2194 21.6118 16.2194 21.4442V13.5446C16.2194 12.6067 14.7582 12.5876 14.7582 13.5446Z" fill="#A80000"/>
</g>
<defs>
<filter id="filter0_d_6_70" x="0" y="0" width="31" height="32" filterUnits="userSpaceOnUse" color-interpolation-filters="sRGB">
<feFlood flood-opacity="0" result="BackgroundImageFix"/>
<feColorMatrix in="SourceAlpha" type="matrix" values="0 0 0 0 0 0 0 0 0 0 0 0 0 0 0 0 0 0 127 0" result="hardAlpha"/>
<feOffset/>
<feGaussianBlur stdDeviation="3"/>
<feComposite in2="hardAlpha" operator="out"/>
<feColorMatrix type="matrix" values="0 0 0 0 1 0 0 0 0 0 0 0 0 0 0 0 0 0 0.25 0"/>
<feBlend mode="normal" in2="BackgroundImageFix" result="effect1_dropShadow_6_70"/>
<feBlend mode="normal" in="SourceGraphic" in2="effect1_dropShadow_6_70" result="shape"/>
</filter>
<clipPath id="clip0_6_70">
<rect width="19" height="20" fill="white" transform="translate(6 6)"/>
</clipPath>
</defs>
</svg>
