<svg width="19" height="20" viewBox="0 0 19 20" fill="none" xmlns="http://www.w3.org/2000/svg">
<g clip-path="url(#clip0_5_40)">
<path fill-rule="evenodd" clip-rule="evenodd" d="M3.78211 9.93479C3.7759 9.70872 3.78589 9.50729 3.77968 9.28121L3.69222 7.81618C3.66194 7.44396 3.67962 6.89215 3.61094 6.3906L3.50715 4.4396H10.2651C12.0657 4.4396 13.7167 4.48527 15.5162 4.48527L15.1979 9.69209C15.192 9.91862 15.1554 9.91948 15.1495 10.146C15.1294 10.9201 15.0203 11.876 15.0154 12.569C15.0138 12.8059 14.9786 12.8198 14.9681 13.0239L14.788 15.9032C14.7347 16.5533 14.7987 17.2132 14.5712 17.6955C14.3858 18.0883 13.8865 18.5035 13.3244 18.5035H5.65325C5.07241 18.5035 4.63324 18.0975 4.42082 17.7268C4.20036 17.3422 4.20976 16.5363 4.19351 15.945C4.18729 15.7189 3.90586 12.2421 3.89965 12.016C3.70741 11.42 3.13233 10.0971 2.41006 11.2444L2.56753 13.5071C2.59991 13.7216 2.58244 13.855 2.59375 14.0745L2.72844 15.7662C2.79241 16.565 2.75699 17.2962 2.95845 17.9563C3.27554 18.9952 4.38649 20.0104 5.74457 20.0104H13.3244C14.6875 20.0104 15.9134 18.9255 16.1765 17.4743C16.211 17.2844 16.1916 17.1189 16.2204 16.9247L16.3713 14.6554C16.4181 14.3134 16.419 13.8288 16.4281 13.4793C16.4447 12.8386 16.6139 11.345 16.6111 10.6943L16.7159 8.97262C16.815 8.24746 16.9373 4.80766 17.023 4.4396C17.9903 4.4396 18.9865 4.66064 18.9865 3.57203C18.9865 3.2357 18.6129 2.93276 18.2559 2.93276H13.1418C13.1418 2.04117 13.2645 1.22268 12.5728 0.579394C12.2888 0.315329 11.7904 0.0103912 11.2697 0.0103912H7.70804C7.44889 0.0103912 7.149 0.106393 6.97612 0.19171C6.37041 0.490658 5.8359 1.07967 5.8359 1.83687V2.93276H0.721777C-0.167157 2.93276 -0.303547 4.22171 0.608723 4.41566C0.980559 4.49471 1.55018 4.4396 1.95465 4.4396C2.02135 4.72588 2.15941 7.34865 2.18287 7.81868C2.28311 9.49952 3.80253 10.513 3.78211 9.93479ZM7.29707 2.06518C7.29707 1.78023 7.42773 1.5629 7.70804 1.5629H11.2697C11.8104 1.5629 11.6806 2.32389 11.6806 2.93276H7.29707V2.06518Z" fill="#353535"/>
<path fill-rule="evenodd" clip-rule="evenodd" d="M11.6806 7.54462V15.4442C11.6806 15.8648 12.3155 16.4064 12.8972 15.9301C13.0018 15.8445 13.1418 15.6118 13.1418 15.4442V7.54462C13.1418 6.60675 11.6806 6.58764 11.6806 7.54462Z" fill="#353535"/>
<path fill-rule="evenodd" clip-rule="evenodd" d="M5.83591 7.54462V15.4442C5.83591 15.8648 6.47079 16.4064 7.05247 15.9301C7.15709 15.8445 7.29708 15.6118 7.29708 15.4442V7.54462C7.29708 6.60675 5.83591 6.58764 5.83591 7.54462Z" fill="#353535"/>
<path fill-rule="evenodd" clip-rule="evenodd" d="M8.75824 7.54462V15.4442C8.75824 15.8648 9.39312 16.4064 9.97481 15.9301C10.0794 15.8445 10.2194 15.6118 10.2194 15.4442V7.54462C10.2194 6.60675 8.75824 6.58764 8.75824 7.54462Z" fill="#353535"/>
</g>
<defs>
<clipPath id="clip0_5_40">
<rect width="19" height="20" fill="white"/>
</clipPath>
</defs>
</svg>
